<?xml version="1.0" encoding="UTF-8"?>
<!DOCTYPE svg PUBLIC "-//W3C//DTD SVG 1.1//EN" "http://www.w3.org/Graphics/SVG/1.1/DTD/svg11.dtd">
<!-- Creator: CorelDRAW X7 -->
<svg xmlns="http://www.w3.org/2000/svg" xml:space="preserve" width="343px" height="105px" version="1.1" style="shape-rendering:geometricPrecision; text-rendering:geometricPrecision; image-rendering:optimizeQuality; fill-rule:evenodd; clip-rule:evenodd" viewBox="0 0 1229 377" xmlns:xlink="http://www.w3.org/1999/xlink"><link xmlns="" type="text/css" id="dark-mode" rel="stylesheet" href=""/><style xmlns="" type="text/css" id="dark-mode-custom-style"/>
 <defs>
  <style type="text/css">
   <![CDATA[
    .fil0 {fill:#201E1E;fill-rule:nonzero}
   ]]>
  </style>
 </defs>
 <g id="PowerClip_x0020_Contents">
  <metadata id="CorelCorpID_0Corel-Layer"/>
  <path class="fil0" d="M77 243c48,0 79,-24 79,-63 0,-77 -117,-68 -117,-124 0,-23 17,-39 44,-39 29,0 50,27 61,50l1 0 8 -34c-18,-12 -40,-20 -69,-20 -43,0 -76,23 -76,61 0,73 116,64 116,125 0,26 -18,40 -47,40 -30,0 -55,-25 -69,-49l-1 0 -7 33c18,13 46,20 77,20zm197 -113l25 -27c9,-9 18,-16 33,-22l0 -2 -43 0 0 2c9,5 11,15 5,22l-64 66 0 -169 -2 0c-14,5 -39,13 -50,16l0 2c9,7 14,14 14,28l0 170c0,10 -3,20 -11,23l0 2 59 0 0 -2c-7,-3 -10,-13 -10,-23l0 -40 19 -21 36 60c7,11 9,20 1,24l0 2 63 0 0 -2c-14,-5 -20,-20 -27,-31l-48 -78zm141 111l0 -2c-8,-3 -11,-13 -11,-23l0 -216 -2 0c-14,5 -37,12 -49,16l0 2c8,7 14,14 14,28l0 170c0,10 -3,20 -11,23l0 2 59 0zm105 2c47,0 82,-37 82,-85 0,-49 -33,-84 -82,-84 -47,0 -82,37 -82,85 0,49 33,84 82,84zm0 -3c-25,0 -42,-27 -42,-82 0,-53 17,-81 42,-81 25,0 42,28 42,81 0,55 -17,82 -42,82zm210 -159c13,7 19,15 13,28l-40 89 -38 -89c-7,-16 -1,-24 9,-28l0 -2 -68 0 0 2c11,6 14,15 20,28l59 132 3 0 62 -136c4,-9 9,-17 22,-24l0 -2 -42 0 0 2zm122 -7c-47,0 -79,37 -79,85 0,52 34,84 82,84 36,0 53,-18 65,-40l-1 -2c-14,18 -31,22 -49,22 -36,0 -57,-33 -57,-75l0 -1 111 0 0 -4c-1,-40 -23,-69 -72,-69zm-39 69c1,-39 15,-66 40,-66 25,0 36,23 36,66l-76 0zm228 -69c-19,0 -37,15 -48,34l0 -31 -1 0c-15,4 -37,12 -49,16l0 2c9,7 14,14 14,27l0 94c0,10 -3,20 -11,23l0 2 60 0 0 -2c-8,-3 -11,-13 -11,-23l0 -106c3,-5 11,-18 29,-18 11,0 21,4 32,17l0 0 10 -27c-6,-5 -13,-8 -25,-8l0 0zm187 144c-5,8 -10,11 -15,11 -8,0 -13,-5 -13,-22l0 -66c0,-39 -19,-67 -62,-67 -39,0 -62,30 -62,59l2 0c0,-21 19,-44 47,-44 31,0 38,23 38,43l0 12 -45 17c-37,13 -52,29 -52,49 0,20 16,33 40,33 23,0 43,-12 57,-30l0 1c5,21 19,29 33,29 16,0 26,-7 33,-24l-1 -1 0 0zm-104 11c-17,0 -25,-12 -25,-26 0,-16 8,-32 37,-45l27 -11 0 64c-9,9 -21,18 -39,18z"/>
  <path class="fil0" d="M118 298l0 1c2,1 4,4 4,8l0 61c0,3 -2,7 -4,8l0 0 22 0 0 0c-3,-1 -5,-5 -5,-8l0 -19 7 0c24,0 37,-9 37,-25 0,-18 -13,-26 -37,-26l-24 0zm17 2l7 0c14,0 22,5 22,24 0,18 -8,23 -22,23l-7 0 0 -47zm84 19c-7,0 -13,5 -17,12l0 -11 0 0c-5,1 -13,4 -17,5l0 1c3,2 5,5 5,9l0 33c0,3 -1,7 -4,8l0 0 20 0 0 0c-2,-1 -3,-5 -3,-8l0 -37c1,-2 4,-6 10,-6 4,0 7,2 11,6l0 0 3 -9c-2,-2 -4,-3 -8,-3l0 0zm37 0c-16,0 -27,13 -27,29 0,18 12,29 28,29 12,0 18,-6 23,-14l-1 0c-5,6 -10,7 -17,7 -12,0 -19,-11 -19,-26l0 0 38 0 0 -1c0,-14 -8,-24 -25,-24zm-13 24c0,-14 5,-23 14,-23 8,0 12,8 12,23l-26 0zm135 -1c0,-11 -3,-23 -17,-23 -8,0 -16,5 -20,11 -1,-3 -5,-11 -16,-11 -9,0 -16,4 -20,10l0 -9 -1 0c-5,1 -12,4 -16,5l0 1c3,2 4,5 4,9l0 33c0,3 -1,7 -3,8l0 0 20 0 0 0c-3,-1 -4,-5 -4,-8l0 -38c3,-4 8,-6 13,-6 6,0 11,4 11,15l0 29c0,3 -1,7 -4,8l0 0 21 0 0 0c-3,-1 -4,-5 -4,-8l0 -37c3,-4 7,-7 13,-7 6,0 10,4 10,15l0 29c0,3 -1,7 -3,8l0 0 20 0 0 0c-3,-1 -4,-5 -4,-8l0 -26zm22 -32c4,0 8,-4 8,-8 0,-5 -4,-8 -8,-8 -4,0 -8,3 -8,8 0,4 4,8 8,8zm11 66l0 0c-3,-1 -4,-5 -4,-8l0 -49 0 0c-5,2 -14,5 -18,6l0 0c3,3 5,5 5,10l0 33c0,3 -1,7 -4,8l0 0 21 0zm60 -56l-1 0c-5,1 -13,4 -17,5l0 1c3,2 5,5 5,9l0 31c-3,3 -7,6 -12,6 -6,0 -11,-4 -11,-15l0 -37 0 0c-5,1 -14,4 -17,5l0 1c3,2 4,5 4,9l0 20c0,13 6,22 18,22 7,0 14,-4 18,-10l1 9 15 0 0 0c-2,-1 -3,-5 -3,-8l0 -48zm102 22c0,-11 -3,-23 -17,-23 -9,0 -16,5 -20,11 -1,-3 -5,-11 -17,-11 -8,0 -16,4 -20,10l0 -9 0 0c-5,1 -13,4 -17,5l0 1c3,2 5,5 5,9l0 33c0,3 -1,7 -4,8l0 0 21 0 0 0c-3,-1 -4,-5 -4,-8l0 -38c3,-4 7,-6 13,-6 6,0 10,4 10,15l0 29c0,3 -1,7 -3,8l0 0 20 0 0 0c-3,-1 -4,-5 -4,-8l0 -37c3,-4 8,-7 13,-7 6,0 11,4 11,15l0 29c0,3 -1,7 -4,8l0 0 21 0 0 0c-3,-1 -4,-5 -4,-8l0 -26zm76 35c10,0 21,-3 28,-8l0 -22c0,-3 1,-6 4,-7l0 -1 -21 0 0 1c3,1 4,4 4,7l0 23c-4,4 -9,6 -15,6 -14,0 -24,-13 -24,-39 0,-25 11,-38 25,-38 9,0 17,9 21,18l0 0 3 -13c-5,-3 -15,-6 -24,-6 -26,0 -40,18 -40,39 0,22 14,40 39,40zm59 -1l0 0c-3,-1 -4,-5 -4,-8l0 -75 0 0c-5,2 -13,4 -17,6l0 1c3,2 4,4 4,9l0 59c0,3 -1,7 -3,8l0 0 20 0zm63 -7c-2,2 -4,3 -6,3 -2,0 -4,-2 -4,-7l0 -23c0,-14 -6,-23 -22,-23 -13,0 -21,10 -21,20l1 0c0,-7 7,-15 16,-15 11,0 13,8 13,15l0 4 -15 6c-13,4 -18,10 -18,17 0,7 5,11 13,11 9,0 15,-4 20,-10l0 0c2,7 7,10 12,10 5,0 8,-2 11,-8l0 0 0 0zm-36 3c-6,0 -9,-4 -9,-9 0,-5 3,-11 13,-15l9 -4 0 22c-3,3 -7,6 -13,6zm59 5c13,0 23,-5 23,-16 0,-9 -7,-13 -17,-18 -9,-5 -12,-8 -12,-13 0,-6 4,-10 10,-10 9,0 12,10 14,14l0 0 4 -9c-4,-4 -10,-6 -18,-6 -15,0 -22,6 -22,15 0,9 7,13 15,18 8,4 14,8 14,14 0,7 -5,10 -11,10 -9,0 -16,-11 -17,-15l-1 0 -4 9c5,4 12,7 22,7zm51 0c13,0 22,-5 22,-16 0,-9 -6,-13 -16,-18 -9,-5 -13,-8 -13,-13 0,-6 5,-10 11,-10 8,0 12,10 14,14l0 0 4 -9c-4,-4 -10,-6 -18,-6 -15,0 -22,6 -22,15 0,9 7,13 15,18 8,4 14,8 14,14 0,7 -5,10 -11,10 -9,0 -16,-11 -17,-15l-1 0 -4 9c5,4 12,7 22,7zm98 -56c4,3 7,6 5,10l-12 30 -10 -30c-3,-6 -1,-8 3,-10l0 0 -24 0 0 0c4,2 5,5 7,10l3 6 -11 25 -14 -31c-2,-6 0,-8 4,-10l0 0 -24 0 0 0c4,2 5,5 7,10l20 45 1 0 17 -37 16 37 1 0 18 -46c1,-3 3,-6 8,-9l0 0 -15 0 0 0zm69 48c-1,2 -3,3 -5,3 -2,0 -4,-2 -4,-7l0 -23c0,-14 -7,-23 -22,-23 -13,0 -21,10 -21,20l1 0c0,-7 6,-15 16,-15 11,0 13,8 13,15l0 4 -16 6c-12,4 -17,10 -17,17 0,7 5,11 13,11 8,0 15,-4 20,-10l0 0c2,7 7,10 11,10 6,0 9,-2 12,-8l0 0 -1 0zm-35 3c-6,0 -9,-4 -9,-9 0,-5 3,-11 13,-15l9 -4 0 22c-3,3 -7,6 -13,6zm72 -53c-7,0 -13,5 -17,12l0 -11 0 0c-5,1 -13,4 -17,5l0 1c3,2 5,5 5,9l0 33c0,3 -1,7 -4,8l0 0 21 0 0 0c-3,-1 -4,-5 -4,-8l0 -37c1,-2 4,-6 10,-6 4,0 7,2 11,6l0 0 4 -9c-2,-2 -5,-3 -9,-3l0 0zm37 0c-16,0 -27,13 -27,29 0,18 12,29 28,29 13,0 19,-6 23,-14l-1 0c-4,6 -10,7 -16,7 -13,0 -20,-11 -20,-26l0 0 38 0 0 -1c0,-14 -8,-24 -25,-24zm-13 24c0,-14 5,-23 14,-23 8,0 12,8 12,23l-26 0z"/>
 </g>
</svg>